<svg id="svg" version="1.1" xmlns="http://www.w3.org/2000/svg" xmlns:xlink="http://www.w3.org/1999/xlink" width="400" height="400" viewBox="0, 0, 400,400"><g id="svgg"><path id="path0" d="M51.157 44.300 C 51.134 44.465,51.089 44.942,51.057 45.360 C 51.001 46.104,49.600 46.685,49.600 45.965 C 49.600 45.164,48.245 45.675,46.960 46.960 C 45.675 48.245,45.164 49.600,45.965 49.600 C 46.165 49.600,46.282 49.915,46.225 50.300 C 46.159 50.740,45.765 51.003,45.164 51.008 C 43.895 51.018,43.660 52.287,44.783 53.073 C 45.446 53.537,45.536 53.795,45.185 54.219 C 44.935 54.519,44.864 54.981,45.027 55.244 C 45.202 55.527,45.154 55.619,44.911 55.468 C 44.675 55.323,44.391 55.746,44.249 56.456 C 43.873 58.337,43.949 59.516,44.457 59.686 C 44.792 59.797,44.779 60.092,44.406 60.788 C 44.054 61.446,43.977 62.589,44.155 64.504 C 44.296 66.025,44.427 101.679,44.444 143.735 C 44.462 185.791,44.621 220.650,44.798 221.200 C 44.989 221.792,45.137 221.931,45.160 221.540 C 45.192 221.016,45.509 220.917,46.700 221.061 C 47.525 221.161,49.985 221.307,52.166 221.386 L 56.131 221.530 57.866 220.080 C 58.820 219.283,59.600 218.427,59.600 218.179 C 59.600 215.422,63.538 211.137,67.161 209.951 C 69.496 209.186,72.007 206.687,73.048 204.093 C 74.169 201.300,76.790 198.751,79.490 197.831 C 81.328 197.205,85.200 193.935,85.200 193.009 C 85.200 190.738,89.328 186.374,92.399 185.400 C 94.056 184.874,97.968 181.187,98.755 179.409 C 99.816 177.010,101.708 175.040,104.101 173.842 C 106.935 172.423,111.113 168.864,111.927 167.176 C 112.733 165.504,115.375 162.815,117.005 162.009 C 117.662 161.684,119.315 160.394,120.679 159.143 C 122.042 157.891,123.495 156.760,123.907 156.629 C 124.320 156.498,125.037 155.717,125.500 154.892 C 129.233 148.251,137.386 145.362,151.400 145.714 C 161.933 145.979,164.586 146.675,168.115 150.101 C 169.077 151.036,170.705 152.594,171.732 153.565 C 172.759 154.536,173.600 155.477,173.600 155.657 C 173.600 155.837,174.296 156.339,175.147 156.773 C 177.360 157.902,179.170 159.524,180.426 161.506 C 181.027 162.453,182.245 163.754,183.134 164.398 C 184.023 165.042,185.188 166.213,185.723 167.001 C 186.259 167.789,187.485 168.943,188.448 169.565 C 190.432 170.846,192.445 172.894,193.253 174.455 C 193.554 175.036,194.605 176.121,195.589 176.867 C 196.572 177.613,197.849 178.918,198.426 179.768 C 199.003 180.617,199.998 181.577,200.637 181.901 C 202.271 182.730,205.063 185.505,205.623 186.857 C 205.882 187.482,206.700 188.367,207.441 188.825 C 208.181 189.283,209.645 190.615,210.694 191.785 C 214.428 195.951,219.807 196.191,220.824 192.236 C 222.628 185.223,223.892 184.433,237.597 181.761 C 240.168 181.259,240.823 180.951,242.206 179.594 L 243.818 178.012 249.809 179.241 C 253.104 179.917,255.980 180.612,256.200 180.784 C 256.420 180.957,258.490 181.408,260.800 181.785 C 272.786 183.745,277.045 186.153,278.382 191.725 C 279.023 194.397,280.273 195.559,283.400 196.392 C 287.710 197.540,289.899 199.678,291.027 203.843 C 291.841 206.853,293.407 208.525,295.839 208.981 C 299.977 209.757,302.453 212.279,303.617 216.903 C 304.216 219.279,305.964 220.862,309.000 221.775 C 312.999 222.978,314.898 224.988,316.007 229.189 C 316.723 231.903,318.106 233.285,320.905 234.083 C 325.182 235.302,327.457 237.618,328.418 241.729 C 329.041 244.393,330.383 245.711,333.345 246.569 C 337.785 247.855,340.043 250.286,341.194 255.019 C 341.868 257.794,343.381 258.848,346.644 258.816 C 350.902 258.774,352.400 258.637,352.400 258.290 C 352.400 258.115,352.732 258.150,353.139 258.367 C 353.647 258.639,354.021 258.619,354.339 258.301 C 354.687 257.953,354.801 257.982,354.806 258.420 C 354.811 258.913,354.870 258.910,355.201 258.400 C 355.451 258.015,355.591 223.618,355.591 162.600 C 355.591 110.240,355.710 66.005,355.855 64.300 C 356.043 62.083,355.987 61.200,355.659 61.200 C 355.406 61.200,355.200 60.840,355.200 60.400 C 355.200 59.960,355.403 59.600,355.652 59.600 C 356.239 59.600,355.726 54.725,355.097 54.337 C 354.464 53.945,354.418 52.432,355.047 52.673 C 355.326 52.780,355.641 53.168,355.746 53.534 C 355.851 53.900,355.907 53.480,355.869 52.600 C 355.808 51.179,355.688 51.000,354.802 51.000 C 353.636 51.000,353.581 50.452,354.532 48.322 C 355.693 45.723,354.294 44.302,351.709 45.455 C 349.547 46.419,349.000 46.367,349.000 45.198 C 349.000 44.312,348.821 44.192,347.400 44.131 C 346.520 44.093,346.100 44.149,346.466 44.254 C 346.832 44.359,347.220 44.674,347.327 44.953 C 347.568 45.582,346.055 45.536,345.663 44.903 C 345.275 44.274,340.400 43.761,340.400 44.348 C 340.400 44.597,340.040 44.800,339.600 44.800 C 339.160 44.800,338.800 44.594,338.800 44.341 C 338.800 44.014,337.920 43.957,335.718 44.143 C 331.750 44.479,68.066 44.486,64.458 44.151 C 62.586 43.977,61.442 44.056,60.788 44.406 C 60.092 44.779,59.797 44.792,59.686 44.457 C 59.516 43.949,58.337 43.873,56.456 44.249 C 55.746 44.391,55.323 44.675,55.468 44.911 C 55.619 45.154,55.527 45.202,55.244 45.027 C 54.981 44.864,54.513 44.940,54.205 45.196 C 53.764 45.562,53.535 45.485,53.126 44.830 C 52.632 44.039,51.247 43.666,51.157 44.300 M48.157 44.718 C 48.353 44.821,47.942 45.145,47.243 45.439 C 46.466 45.766,45.751 46.482,45.402 47.286 C 45.088 48.009,44.824 48.345,44.816 48.033 C 44.807 47.722,44.716 47.551,44.613 47.654 C 44.332 47.935,45.284 50.800,45.659 50.800 C 45.837 50.800,45.789 50.375,45.552 49.855 C 44.603 47.772,47.772 44.603,49.855 45.552 C 50.375 45.789,50.800 45.826,50.800 45.635 C 50.800 45.443,50.367 45.178,49.837 45.045 C 49.308 44.912,48.633 44.742,48.337 44.667 C 48.042 44.592,47.961 44.615,48.157 44.718 M62.800 44.800 C 62.024 45.301,61.600 45.301,61.600 44.800 C 61.600 44.580,62.005 44.403,62.500 44.406 C 63.228 44.411,63.285 44.486,62.800 44.800 M338.400 44.800 C 338.400 45.301,337.976 45.301,337.200 44.800 C 336.715 44.486,336.772 44.411,337.500 44.406 C 337.995 44.403,338.400 44.580,338.400 44.800 M350.000 45.226 L 349.000 46.034 350.579 45.404 C 352.488 44.643,352.781 44.397,351.767 44.409 C 351.345 44.414,350.550 44.782,350.000 45.226 M354.202 46.002 C 355.225 47.132,354.790 47.237,353.714 46.120 C 353.227 45.614,352.974 45.200,353.152 45.200 C 353.330 45.200,353.803 45.561,354.202 46.002 M351.994 46.638 C 351.997 46.439,352.356 46.598,352.791 46.991 C 353.225 47.385,353.485 47.863,353.367 48.053 C 353.249 48.244,353.354 48.400,353.600 48.400 C 353.846 48.400,353.934 48.583,353.796 48.807 C 353.652 49.039,352.975 48.654,352.215 47.907 C 351.483 47.188,350.978 46.446,351.092 46.257 C 351.206 46.069,351.455 46.159,351.644 46.457 C 351.833 46.756,351.991 46.837,351.994 46.638 M47.934 47.759 C 47.200 48.507,46.550 49.072,46.489 49.015 C 46.155 48.703,47.263 46.839,47.877 46.680 C 49.256 46.323,49.261 46.407,47.934 47.759 M355.200 47.751 C 355.200 47.834,354.922 48.599,354.583 49.451 L 353.966 51.000 354.774 50.000 C 355.506 49.094,355.896 47.600,355.400 47.600 C 355.290 47.600,355.200 47.668,355.200 47.751 M45.194 61.900 C 45.176 62.777,44.412 63.359,44.406 62.500 C 44.403 62.005,44.580 61.600,44.800 61.600 C 45.020 61.600,45.197 61.735,45.194 61.900 M355.594 62.500 C 355.589 63.228,355.514 63.285,355.200 62.800 C 354.699 62.024,354.699 61.600,355.200 61.600 C 355.420 61.600,355.597 62.005,355.594 62.500 M266.200 83.770 C 272.862 84.966,276.165 87.332,277.635 91.961 C 278.298 94.048,280.992 96.667,283.245 97.415 C 290.104 99.693,292.822 108.477,291.985 125.657 C 291.433 136.980,289.806 140.189,283.791 141.817 C 280.654 142.666,280.667 142.652,279.842 146.422 C 278.185 153.990,276.173 154.753,257.000 155.083 C 239.780 155.378,235.297 154.770,231.742 151.653 C 230.831 150.854,229.345 149.706,228.440 149.102 C 227.536 148.498,226.302 147.267,225.698 146.365 C 225.094 145.464,223.997 144.026,223.260 143.171 C 220.221 139.642,219.067 128.957,219.925 112.277 C 220.627 98.621,222.848 94.800,230.085 94.800 C 231.606 94.800,232.244 94.002,233.138 90.982 C 235.155 84.176,239.304 82.701,255.600 82.996 C 259.714 83.071,264.084 83.390,266.200 83.770 " stroke="none" fill="#04b4d4" fill-rule="evenodd"></path><path id="path1" d="M131.100 43.900 C 168.995 43.956,231.005 43.956,268.900 43.900 C 306.795 43.844,275.790 43.798,200.000 43.798 C 124.210 43.798,93.205 43.844,131.100 43.900 M44.578 44.835 C 44.431 45.074,44.521 45.479,44.779 45.735 C 45.136 46.090,45.178 46.018,44.954 45.431 C 44.719 44.813,44.797 44.713,45.351 44.926 C 45.762 45.084,45.943 45.031,45.797 44.795 C 45.475 44.275,44.913 44.293,44.578 44.835 M354.203 44.795 C 354.057 45.031,354.238 45.084,354.649 44.926 C 355.203 44.713,355.281 44.813,355.046 45.431 C 354.822 46.018,354.864 46.090,355.221 45.735 C 355.702 45.258,355.431 44.400,354.800 44.400 C 354.606 44.400,354.337 44.578,354.203 44.795 M43.796 143.600 C 43.796 188.370,43.843 206.685,43.900 184.300 C 43.957 161.915,43.957 125.285,43.900 102.900 C 43.843 80.515,43.796 98.830,43.796 143.600 M356.197 162.400 C 356.197 217.510,356.243 240.055,356.300 212.500 C 356.357 184.945,356.357 139.855,356.300 112.300 C 356.243 84.745,356.197 107.290,356.197 162.400 M250.797 92.170 C 244.866 93.580,244.001 93.945,240.800 96.384 C 239.150 97.641,236.180 99.760,234.200 101.092 C 229.084 104.535,228.237 105.545,227.067 109.600 C 223.363 122.427,225.030 132.265,231.866 137.929 C 233.222 139.053,235.112 140.915,236.066 142.067 C 240.956 147.975,242.058 148.550,250.000 149.340 C 256.778 150.013,259.226 149.747,266.192 147.580 C 272.335 145.668,280.277 133.513,283.402 121.238 L 284.054 118.676 282.887 116.438 C 282.246 115.207,281.157 113.120,280.467 111.800 C 279.778 110.480,278.666 108.194,277.996 106.721 C 276.055 102.449,271.491 97.975,267.704 96.635 C 265.987 96.027,263.356 94.735,259.600 92.657 C 256.584 90.988,255.921 90.951,250.797 92.170 " stroke="none" fill="#ccf0f4" fill-rule="evenodd"></path><path id="path2" d="M53.800 44.400 C 53.508 44.873,53.899 44.873,55.000 44.400 C 55.771 44.069,55.769 44.055,54.924 44.028 C 54.442 44.013,53.936 44.180,53.800 44.400 M133.900 44.300 C 170.255 44.356,229.745 44.356,266.100 44.300 C 302.455 44.244,272.710 44.198,200.000 44.198 C 127.290 44.198,97.545 44.244,133.900 44.300 M338.800 44.400 C 338.800 44.901,339.224 44.901,340.000 44.400 C 340.485 44.086,340.428 44.011,339.700 44.006 C 339.205 44.003,338.800 44.180,338.800 44.400 M353.433 45.147 C 353.315 45.337,353.557 45.799,353.970 46.173 C 354.569 46.715,354.782 46.746,355.024 46.326 C 355.192 46.037,355.181 45.933,355.001 46.097 C 354.585 46.473,353.534 45.630,353.828 45.155 C 353.949 44.960,353.957 44.800,353.847 44.800 C 353.737 44.800,353.551 44.956,353.433 45.147 M44.267 53.867 C 44.120 54.013,44.011 54.508,44.025 54.967 C 44.049 55.733,44.082 55.723,44.434 54.842 C 44.826 53.863,44.744 53.389,44.267 53.867 M355.479 60.157 C 355.315 60.574,355.275 61.009,355.391 61.124 C 355.755 61.489,356.076 60.891,355.924 60.131 C 355.783 59.435,355.762 59.436,355.479 60.157 M44.097 149.076 C 44.033 202.934,44.135 230.436,44.400 230.600 C 44.620 230.736,44.800 231.152,44.800 231.524 C 44.800 232.094,45.288 232.213,47.900 232.281 C 49.605 232.326,51.360 232.375,51.800 232.390 C 55.812 232.524,55.836 232.513,61.135 228.258 C 63.915 226.026,68.981 221.467,72.394 218.127 C 75.807 214.788,79.311 211.494,80.179 210.808 C 81.047 210.123,84.207 207.096,87.200 204.081 C 90.193 201.066,93.802 197.504,95.221 196.165 C 96.639 194.827,99.002 192.452,100.471 190.890 C 101.940 189.327,104.483 187.057,106.122 185.845 C 107.761 184.633,109.738 182.775,110.515 181.715 C 112.387 179.165,116.058 175.715,118.883 173.852 C 121.224 172.307,122.123 171.384,125.132 167.445 C 126.975 165.033,129.748 162.833,133.006 161.200 C 134.102 160.650,136.170 159.059,137.600 157.665 C 142.465 152.921,142.286 152.986,149.966 153.139 C 157.589 153.290,157.166 153.119,162.000 157.994 C 163.584 159.591,165.743 161.231,167.526 162.190 C 170.771 163.935,173.449 166.327,175.044 168.903 C 176.594 171.407,178.280 173.073,181.277 175.064 C 184.189 176.998,185.789 178.640,187.813 181.772 C 189.287 184.054,191.517 186.267,193.600 187.514 C 195.558 188.687,198.427 191.707,200.684 194.971 C 202.830 198.074,205.526 200.160,207.859 200.523 C 208.707 200.655,211.542 201.122,214.159 201.560 L 218.918 202.357 220.759 201.095 C 221.772 200.400,224.676 197.822,227.213 195.366 C 232.215 190.522,234.271 189.237,240.200 187.245 C 247.415 184.820,258.872 186.175,264.499 190.119 C 267.111 191.949,279.727 203.369,283.668 207.469 C 285.501 209.376,288.516 212.390,290.370 214.168 C 292.223 215.946,294.563 218.293,295.570 219.383 C 296.576 220.474,302.489 226.504,308.710 232.783 C 328.216 252.473,334.457 258.856,339.221 263.988 L 343.842 268.965 348.377 268.915 C 351.675 268.879,353.004 268.720,353.250 268.333 C 353.508 267.925,353.589 267.965,353.594 268.500 C 353.601 269.363,353.770 269.369,355.014 268.554 L 356.000 267.908 355.902 167.854 L 355.803 67.800 355.602 163.067 C 355.491 215.463,355.265 258.468,355.100 258.633 C 354.935 258.798,354.800 258.687,354.800 258.387 C 354.800 257.974,354.687 257.953,354.339 258.301 C 354.021 258.619,353.647 258.639,353.139 258.367 C 352.732 258.150,352.400 258.115,352.400 258.290 C 352.400 258.637,350.902 258.774,346.644 258.816 C 343.381 258.848,341.868 257.794,341.194 255.019 C 340.043 250.286,337.785 247.855,333.345 246.569 C 330.383 245.711,329.041 244.393,328.418 241.729 C 327.457 237.618,325.182 235.302,320.905 234.083 C 318.106 233.285,316.723 231.903,316.007 229.189 C 314.898 224.988,312.999 222.978,309.000 221.775 C 305.964 220.862,304.216 219.279,303.617 216.903 C 302.453 212.279,299.977 209.757,295.839 208.981 C 293.407 208.525,291.841 206.853,291.027 203.843 C 289.899 199.678,287.710 197.540,283.400 196.392 C 280.273 195.559,279.023 194.397,278.382 191.725 C 277.045 186.153,272.786 183.745,260.800 181.785 C 258.490 181.408,256.420 180.957,256.200 180.784 C 255.980 180.612,253.104 179.917,249.809 179.241 L 243.818 178.012 242.206 179.594 C 240.823 180.951,240.168 181.259,237.597 181.761 C 223.892 184.433,222.628 185.223,220.824 192.236 C 219.807 196.191,214.428 195.951,210.694 191.785 C 209.645 190.615,208.181 189.283,207.441 188.825 C 206.700 188.367,205.882 187.482,205.623 186.857 C 205.063 185.505,202.271 182.730,200.637 181.901 C 199.998 181.577,199.003 180.617,198.426 179.768 C 197.849 178.918,196.572 177.613,195.589 176.867 C 194.605 176.121,193.554 175.036,193.253 174.455 C 192.450 172.904,190.436 170.849,188.486 169.589 C 187.544 168.980,186.246 167.755,185.602 166.866 C 184.958 165.977,183.787 164.812,182.999 164.277 C 182.211 163.741,181.064 162.511,180.450 161.544 C 179.171 159.527,177.371 157.908,175.147 156.773 C 174.296 156.339,173.600 155.837,173.600 155.657 C 173.600 155.477,172.759 154.536,171.732 153.565 C 170.705 152.594,169.077 151.036,168.115 150.101 C 164.586 146.675,161.933 145.979,151.400 145.714 C 137.386 145.362,129.233 148.251,125.500 154.892 C 125.037 155.717,124.320 156.498,123.907 156.629 C 123.495 156.760,122.042 157.891,120.679 159.143 C 119.315 160.394,117.662 161.684,117.005 162.009 C 115.375 162.815,112.733 165.504,111.927 167.176 C 111.113 168.864,106.935 172.423,104.101 173.842 C 101.708 175.040,99.816 177.010,98.755 179.409 C 97.968 181.187,94.056 184.874,92.399 185.400 C 89.328 186.374,85.200 190.738,85.200 193.009 C 85.200 193.935,81.328 197.205,79.490 197.831 C 76.790 198.751,74.169 201.300,73.048 204.093 C 72.007 206.687,69.496 209.186,67.161 209.951 C 63.538 211.137,59.600 215.422,59.600 218.179 C 59.600 218.427,58.820 219.283,57.866 220.080 L 56.131 221.530 52.166 221.386 C 49.985 221.307,47.525 221.161,46.700 221.061 C 45.528 220.919,45.200 221.016,45.200 221.506 C 45.200 221.851,45.065 221.998,44.900 221.833 C 44.735 221.668,44.509 186.943,44.397 144.667 L 44.194 67.800 44.097 149.076 " stroke="none" fill="#04a4c4" fill-rule="evenodd"></path><path id="path3" d="M53.119 43.898 C 54.944 43.972,57.824 43.972,59.519 43.897 C 61.214 43.822,59.720 43.761,56.200 43.762 C 52.680 43.762,51.294 43.824,53.119 43.898 M340.719 43.898 C 342.544 43.972,345.424 43.972,347.119 43.897 C 348.814 43.822,347.320 43.761,343.800 43.762 C 340.280 43.762,338.894 43.824,340.719 43.898 M44.145 44.600 C 43.635 45.929,44.316 46.453,45.313 45.499 C 45.829 45.004,46.184 44.465,46.102 44.300 C 45.834 43.762,44.381 43.985,44.145 44.600 M353.898 44.300 C 353.816 44.465,354.171 45.004,354.687 45.499 C 355.684 46.453,356.365 45.929,355.855 44.600 C 355.619 43.985,354.166 43.762,353.898 44.300 M43.762 56.200 C 43.762 59.720,43.824 61.106,43.898 59.281 C 43.972 57.456,43.972 54.576,43.897 52.881 C 43.822 51.186,43.761 52.680,43.762 56.200 M356.162 56.200 C 356.162 59.720,356.224 61.106,356.298 59.281 C 356.372 57.456,356.372 54.576,356.297 52.881 C 356.222 51.186,356.161 52.680,356.162 56.200 M142.188 153.784 C 141.445 154.233,139.524 155.860,137.918 157.400 C 136.312 158.940,134.101 160.650,133.005 161.200 C 129.747 162.834,126.975 165.033,125.132 167.445 C 122.123 171.384,121.224 172.307,118.883 173.852 C 116.058 175.715,112.387 179.165,110.515 181.715 C 109.738 182.775,107.761 184.633,106.122 185.845 C 104.483 187.057,101.940 189.327,100.471 190.890 C 99.002 192.452,96.639 194.827,95.221 196.165 C 93.802 197.504,90.193 201.066,87.200 204.081 C 84.207 207.096,81.047 210.123,80.179 210.808 C 79.311 211.494,75.807 214.788,72.394 218.127 C 68.981 221.467,63.915 226.026,61.135 228.258 C 55.836 232.513,55.812 232.524,51.800 232.390 C 51.360 232.375,49.605 232.326,47.900 232.281 C 45.402 232.216,44.800 232.080,44.800 231.580 C 44.800 231.239,44.629 230.789,44.420 230.580 C 44.212 230.371,43.973 228.940,43.891 227.400 C 43.808 225.860,43.754 253.976,43.770 289.880 C 43.794 342.879,43.898 355.258,44.320 355.680 C 45.091 356.451,354.909 356.451,355.680 355.680 C 356.100 355.260,356.206 346.251,356.232 308.680 C 356.250 283.116,356.198 263.460,356.117 265.000 C 355.957 268.023,353.618 271.268,353.594 268.500 C 353.589 267.965,353.508 267.925,353.250 268.333 C 353.004 268.720,351.675 268.879,348.377 268.915 L 343.842 268.965 339.221 263.988 C 334.457 258.856,328.216 252.473,308.710 232.783 C 302.489 226.504,296.576 220.474,295.570 219.383 C 294.563 218.293,292.223 215.946,290.370 214.168 C 288.516 212.390,285.501 209.376,283.668 207.469 C 279.727 203.369,267.111 191.949,264.499 190.119 C 258.872 186.175,247.415 184.820,240.200 187.245 C 234.271 189.237,232.215 190.522,227.213 195.366 C 224.676 197.822,221.772 200.400,220.759 201.095 L 218.918 202.357 214.159 201.560 C 211.542 201.122,208.707 200.655,207.859 200.523 C 205.526 200.160,202.830 198.074,200.684 194.971 C 198.427 191.707,195.558 188.687,193.600 187.514 C 191.517 186.267,189.287 184.054,187.813 181.772 C 185.789 178.640,184.189 176.998,181.277 175.064 C 178.280 173.073,176.594 171.407,175.044 168.903 C 173.449 166.327,170.771 163.935,167.526 162.190 C 165.743 161.231,163.584 159.591,162.000 157.994 C 157.204 153.157,157.572 153.307,150.069 153.126 C 144.044 152.980,143.433 153.032,142.188 153.784 " stroke="none" fill="#045488" fill-rule="evenodd"></path><path id="path4" d="M49.700 44.788 C 49.276 45.467,49.332 45.636,50.104 46.010 C 50.922 46.406,50.938 46.394,50.288 45.869 C 49.693 45.389,49.672 45.258,50.162 45.070 C 50.485 44.946,50.832 45.060,50.933 45.322 C 51.035 45.585,51.099 45.395,51.074 44.900 C 51.019 43.790,50.357 43.736,49.700 44.788 M52.800 44.351 C 52.800 45.181,53.808 45.530,54.578 44.967 C 55.004 44.655,55.175 44.400,54.956 44.400 C 54.738 44.400,54.318 44.625,54.021 44.900 C 53.581 45.308,53.528 45.271,53.729 44.700 C 53.891 44.239,53.774 44.000,53.387 44.000 C 53.064 44.000,52.800 44.158,52.800 44.351 M65.233 44.143 C 65.650 44.502,68.397 44.719,68.185 44.376 C 68.057 44.169,67.303 44.000,66.510 44.000 C 65.716 44.000,65.142 44.065,65.233 44.143 M331.815 44.376 C 331.676 44.601,332.191 44.659,333.091 44.520 C 335.100 44.210,335.261 44.000,333.490 44.000 C 332.697 44.000,331.943 44.169,331.815 44.376 M345.600 44.733 C 345.600 45.297,346.051 45.555,346.639 45.330 C 347.474 45.009,347.317 44.400,346.400 44.400 C 345.960 44.400,345.600 44.550,345.600 44.733 M349.055 45.000 C 348.929 45.330,349.010 45.600,349.236 45.600 C 349.462 45.600,349.540 45.773,349.410 45.984 C 349.269 46.211,349.668 46.195,350.387 45.945 C 351.055 45.712,351.713 45.341,351.849 45.121 C 351.985 44.900,351.705 44.930,351.226 45.186 C 350.747 45.442,350.141 45.564,349.878 45.458 C 349.537 45.319,349.550 45.254,349.924 45.232 C 350.212 45.214,350.336 45.020,350.200 44.800 C 349.841 44.219,349.320 44.310,349.055 45.000 M46.000 45.157 C 46.000 45.427,45.792 45.519,45.538 45.362 C 45.265 45.193,45.184 45.251,45.341 45.504 C 45.486 45.739,45.379 46.023,45.102 46.134 C 44.789 46.260,44.770 46.349,45.051 46.368 C 45.634 46.409,46.593 45.260,46.257 44.924 C 46.116 44.782,46.000 44.887,46.000 45.157 M46.392 46.610 C 45.619 47.541,46.171 47.717,46.998 46.802 C 47.397 46.361,47.538 46.000,47.311 46.000 C 47.084 46.000,46.670 46.274,46.392 46.610 M351.873 46.953 C 351.589 47.693,352.461 48.457,353.123 48.048 C 353.494 47.818,353.428 47.568,352.859 47.053 C 352.211 46.467,352.066 46.452,351.873 46.953 M47.000 47.200 C 46.569 47.897,47.208 48.492,47.831 47.974 C 48.139 47.718,48.293 47.350,48.172 47.155 C 47.880 46.683,47.306 46.705,47.000 47.200 M354.636 48.342 C 354.121 49.176,353.637 50.825,353.967 50.620 C 354.168 50.496,354.392 50.570,354.466 50.785 C 354.544 51.012,354.829 51.032,355.151 50.832 C 355.459 50.640,355.570 50.274,355.401 50.002 C 355.170 49.627,355.021 49.640,354.756 50.057 C 354.238 50.874,354.289 49.755,354.814 48.774 C 355.215 48.024,355.062 47.653,354.636 48.342 M44.700 49.757 C 43.741 50.485,43.822 51.021,44.900 51.074 C 45.395 51.099,45.585 51.035,45.322 50.933 C 45.060 50.832,44.946 50.485,45.070 50.162 C 45.258 49.672,45.389 49.693,45.869 50.288 C 46.394 50.937,46.406 50.921,46.008 50.100 C 45.501 49.054,45.594 49.078,44.700 49.757 M44.000 53.387 C 44.000 53.774,44.239 53.891,44.700 53.729 C 45.271 53.528,45.308 53.581,44.900 54.021 C 44.625 54.318,44.400 54.738,44.400 54.956 C 44.400 55.175,44.655 55.004,44.967 54.578 C 45.367 54.030,45.411 53.655,45.118 53.301 C 44.557 52.625,44.000 52.668,44.000 53.387 M354.670 53.361 C 354.445 53.949,354.703 54.400,355.267 54.400 C 355.450 54.400,355.600 54.040,355.600 53.600 C 355.600 52.683,354.991 52.526,354.670 53.361 M44.000 66.510 C 44.000 67.303,44.169 68.057,44.376 68.185 C 44.601 68.324,44.659 67.809,44.520 66.909 C 44.210 64.900,44.000 64.739,44.000 66.510 M355.664 66.067 C 355.629 66.654,355.484 67.464,355.341 67.867 C 355.143 68.429,355.196 68.495,355.570 68.151 C 355.844 67.899,355.986 67.109,355.893 66.351 C 355.759 65.253,355.716 65.200,355.664 66.067 M245.000 83.178 C 237.648 83.810,234.686 85.759,233.138 90.982 C 232.244 94.002,231.606 94.800,230.085 94.800 C 222.848 94.800,220.627 98.621,219.925 112.277 C 219.067 128.957,220.221 139.642,223.260 143.171 C 223.997 144.026,225.094 145.464,225.698 146.365 C 226.302 147.267,227.536 148.498,228.440 149.102 C 229.345 149.706,230.831 150.854,231.742 151.653 C 235.297 154.770,239.780 155.378,257.000 155.083 C 276.173 154.753,278.185 153.990,279.842 146.422 C 280.667 142.652,280.654 142.666,283.791 141.817 C 289.806 140.189,291.433 136.980,291.985 125.657 C 292.822 108.477,290.104 99.693,283.245 97.415 C 280.992 96.667,278.298 94.048,277.635 91.961 C 275.288 84.571,264.038 81.543,245.000 83.178 M259.600 92.657 C 263.356 94.735,265.987 96.027,267.704 96.635 C 271.491 97.975,276.055 102.449,277.996 106.721 C 278.666 108.194,279.778 110.480,280.467 111.800 C 281.157 113.120,282.246 115.207,282.887 116.438 L 284.054 118.676 283.402 121.238 C 280.277 133.513,272.335 145.668,266.192 147.580 C 259.226 149.747,256.778 150.013,250.000 149.340 C 242.058 148.550,240.956 147.975,236.066 142.067 C 235.112 140.915,233.222 139.053,231.866 137.929 C 225.030 132.265,223.363 122.427,227.067 109.600 C 228.237 105.545,229.084 104.535,234.200 101.092 C 236.180 99.760,239.150 97.641,240.800 96.384 C 244.001 93.945,244.866 93.580,250.797 92.170 C 255.921 90.951,256.584 90.988,259.600 92.657 " stroke="none" fill="#2cc4dc" fill-rule="evenodd"></path></g></svg>