<?xml version="1.0" encoding="UTF-8"?>
<svg version="1.1" xmlns="http://www.w3.org/2000/svg" width="32" height="32">
    <!-- Background shapes -->
    <path d="M0 0 C7.92 0 15.84 0 24 0 C24 7.92 24 15.84 24 24 C16.08 24 8.16 24 0 24 C0 16.08 0 8.16 0 0 Z" fill="#005583" transform="translate(4,4)"/>
    <path d="M0 0 C7.92 0 15.84 0 24 0 C24 5.61 24 11.22 24 17 C22.95 16.18 21.9 15.35 20.81 14.5 C17.65 12.21 15.93 11.78 12 12 C10.19 10.5 10.19 10.5 9 9 C6.76 10 5.12 10.88 3.38 12.62 C2.92 13.08 2.47 13.53 2 14 C1.34 14 0.68 14 0 14 C0 9.38 0 4.76 0 0 Z" fill="#00B5D4" transform="translate(4,4)"/>
    <!-- White sun circle -->
    <circle cx="22" cy="8" r="3" fill="#FFFFFF"/>
</svg>
